<svg xmlns="http://www.w3.org/2000/svg" width="186" height="50" viewBox="0 0 186 50" fill="none">
  <g clip-path="url(#clip0_1_2)">
    <!-- Blue circle with inner shape -->
    <circle cx="25" cy="25" r="20" fill="#3C7AE0"/>
    <!-- Inner shape/person -->
    <path d="M25 16.5C27.4853 16.5 29.5 18.5147 29.5 21C29.5 23.4853 27.4853 25.5 25 25.5C22.5147 25.5 20.5 23.4853 20.5 21C20.5 18.5147 22.5147 16.5 25 16.5Z" fill="#FFFFFF"/>
    <path d="M25 28C32 28 32 33 32 33V35H18V33C18 33 18 28 25 28Z" fill="#FFFFFF"/>
    <!-- Add small element on top -->
    <circle cx="25" cy="11" r="3" fill="#6E35DE"/>
    
    <!-- Text "PeakOptimizer" -->
    <path d="M60.2183 29.4H63.6983V27.24H62.0103V15.92H60.2183V29.4Z" fill="#1A1A1A"/>
    <path d="M75.1286 29.64C77.3366 29.64 78.8086 28.28 78.8086 25.92V18.68H77.0326V25.8C77.0326 27.04 76.3566 27.88 75.1286 27.88C73.9166 27.88 73.2406 27.04 73.2406 25.8V18.68H71.4646V25.92C71.4646 28.28 72.9366 29.64 75.1286 29.64Z" fill="#1A1A1A"/>
    <path d="M87.0989 29.4H88.8909V18.68H87.0989V29.4Z" fill="#1A1A1A"/>
    <path d="M87.0989 16.36H88.8909V14.68H87.0989V16.36Z" fill="#1A1A1A"/>
    <path d="M97.8914 29.64C100.099 29.64 101.571 28.28 101.571 25.92V18.68H99.7954V25.8C99.7954 27.04 99.1194 27.88 97.8914 27.88C96.6634 27.88 95.9874 27.04 95.9874 25.8V18.68H94.2114V25.92C94.2114 28.28 95.6834 29.64 97.8914 29.64Z" fill="#1A1A1A"/>
    <path d="M108.664 29.4H110.456V23.16C110.456 22.08 111.072 21.36 112.024 21.36C113.016 21.36 113.512 21.92 113.512 22.96V29.4H115.304V22.28C115.304 20.36 114.344 19.12 112.5 19.12C111.296 19.12 110.456 19.68 110.056 20.44H109.944C109.92 20.08 109.896 19.68 109.824 19.32H108.232C108.28 19.96 108.304 20.6 108.304 21.32V29.4H108.664Z" fill="#1A1A1A"/>
    <path d="M118.636 36.12H120.428V30.44C120.8 30.12 121.54 29.64 122.724 29.64C125.132 29.64 126.748 27.8 126.748 24.36C126.748 21.12 125.292 19.12 122.844 19.12C121.436 19.12 120.548 19.8 120.068 20.4H119.956C119.932 20.04 119.908 19.68 119.836 19.32H118.244C118.292 19.96 118.316 20.6 118.316 21.32V36.12H118.636ZM122.364 27.88C120.98 27.88 120.428 27.08 120.428 25.84V22.48C120.428 21.36 121.116 20.88 122.364 20.88C123.932 20.88 124.86 22.16 124.86 24.36C124.86 26.64 123.932 27.88 122.364 27.88Z" fill="#1A1A1A"/>
    <path d="M135.509 29.64C138.077 29.64 139.845 28.04 139.845 25.64C139.845 23.48 138.461 22.44 136.101 21.84C134.637 21.48 134.045 21.12 134.045 20.36C134.045 19.56 134.721 19.04 135.773 19.04C136.861 19.04 137.633 19.56 137.717 20.44H139.613C139.525 18.68 138.101 17.48 135.813 17.48C133.401 17.48 131.965 18.84 131.965 20.72C131.965 22.84 133.301 23.88 135.813 24.52C137.177 24.88 137.765 25.28 137.765 26.08C137.765 26.88 136.905 28.08 135.477 28.08C134.269 28.08 133.181 27.48 133.045 26.4H131.125C131.245 28.2 132.941 29.64 135.509 29.64Z" fill="#1A1A1A"/>
    <path d="M141.303 18.68H143.095V14.68H141.303V18.68ZM141.303 29.4H143.095V19.32H141.303V29.4Z" fill="#1A1A1A"/>
    <path d="M153.188 29.4H155.02L158.26 19.32H156.348L154.196 26.84H154.084L151.892 19.32H149.948L153.188 29.4Z" fill="#1A1A1A"/>
    <path d="M159.689 29.4H161.481V23.16C161.481 22.08 162.097 21.36 163.049 21.36C164.041 21.36 164.537 21.92 164.537 22.96V29.4H166.329V22.28C166.329 20.36 165.369 19.12 163.525 19.12C162.321 19.12 161.481 19.68 161.081 20.44H160.969C160.945 20.08 160.921 19.68 160.849 19.32H159.257C159.305 19.96 159.329 20.6 159.329 21.32V29.4H159.689Z" fill="#1A1A1A"/>
    <path d="M175.09 29.64C177.498 29.64 178.954 28.48 179.19 26.6H177.382C177.222 27.48 176.374 28.08 175.09 28.08C173.486 28.08 172.55 26.84 172.55 24.36C172.55 21.96 173.486 20.72 175.09 20.72C176.374 20.72 177.114 21.36 177.382 22.36H179.19C178.858 20.48 177.37 19.12 175.09 19.12C172.19 19.12 170.67 21.04 170.67 24.36C170.67 27.64 172.19 29.64 175.09 29.64Z" fill="#1A1A1A"/>
    <path d="M181.043 29.4H182.835V22.36C182.835 21.32 183.643 20.72 184.675 20.72C185.043 20.72 185.363 20.76 185.547 20.84V19.16C185.363 19.12 185.123 19.08 184.883 19.08C183.691 19.08 182.643 19.8 182.227 21.12H182.115L182.003 19.32H180.411C180.459 19.96 180.483 20.6 180.483 21.32V29.4H181.043Z" fill="#1A1A1A"/>
  </g>
  <defs>
    <clipPath id="clip0_1_2">
      <rect width="186" height="50" fill="white"/>
    </clipPath>
  </defs>
</svg> 